<svg width="14" height="14" viewBox="0 0 14 14" fill="none" xmlns="http://www.w3.org/2000/svg">
<path d="M8.28125 11.25H8.84375C8.98438 11.25 9.125 11.1328 9.125 10.9688V5.90625C9.125 5.76562 8.98438 5.625 8.84375 5.625H8.28125C8.11719 5.625 8 5.76562 8 5.90625V10.9688C8 11.1328 8.11719 11.25 8.28125 11.25ZM12.125 3.375H10.1797L9.38281 2.0625C9.19531 1.75781 8.77344 1.5 8.42188 1.5H6.05469C5.70312 1.5 5.28125 1.75781 5.09375 2.0625L4.29688 3.375H2.375C2.16406 3.375 2 3.5625 2 3.75V4.125C2 4.33594 2.16406 4.5 2.375 4.5H2.75V12.375C2.75 13.0078 3.24219 13.5 3.875 13.5H10.625C11.2344 13.5 11.75 13.0078 11.75 12.375V4.5H12.125C12.3125 4.5 12.5 4.33594 12.5 4.125V3.75C12.5 3.5625 12.3125 3.375 12.125 3.375ZM6.00781 2.69531C6.03125 2.67188 6.10156 2.625 6.125 2.625H6.14844H8.35156C8.375 2.625 8.44531 2.67188 8.46875 2.69531L8.86719 3.375H5.60938L6.00781 2.69531ZM10.625 12.375H3.875V4.5H10.625V12.375ZM5.65625 11.25H6.21875C6.35938 11.25 6.5 11.1328 6.5 10.9688V5.90625C6.5 5.76562 6.35938 5.625 6.21875 5.625H5.65625C5.49219 5.625 5.375 5.76562 5.375 5.90625V10.9688C5.375 11.1328 5.49219 11.25 5.65625 11.25Z" fill="#D97059"/>
</svg>
