<svg width="14" height="14" viewBox="0 0 14 14" fill="none" xmlns="http://www.w3.org/2000/svg">
<path d="M12.5174 3.23438L11.2517 1.96875C10.6424 1.35938 9.63456 1.35938 9.02519 1.96875L1.57206 9.375L1.00956 12.8672C0.93925 13.2422 1.26738 13.5703 1.64238 13.5L5.13456 12.9375L12.5408 5.48438C13.1502 4.875 13.1502 3.86719 12.5174 3.23438ZM3.82206 8.57812L7.80644 4.61719L9.89237 6.70312L5.93144 10.6875V9.70312H4.80644V8.57812H3.82206ZM2.93144 12.2578L2.25175 11.5781L2.55644 9.86719L2.97831 9.42188H3.96269V10.5469H5.08769V11.5312L4.64238 11.9531L2.93144 12.2578ZM11.8142 4.75781L10.6658 5.90625L8.60331 3.84375L9.75175 2.69531C9.96269 2.48438 10.3142 2.48438 10.5252 2.69531L11.7908 3.96094C12.0252 4.19531 12.0252 4.54688 11.8142 4.75781Z" fill="white"/>
</svg>
